Coordinates
version=1
nRows=8
nColumns=36
inDegrees=yes

Units are S.I. units (second, meters, Newtons, ...)
If the header above contains a line with 'inDegrees', this indicates whether rotational values are in degrees (yes) or radians (no).

endheader
time	pelvis_tilt	pelvis_list	pelvis_rotation	pelvis_tx	pelvis_ty	pelvis_tz	hip_flexion_r	hip_adduction_r	hip_rotation_r	knee_angle_r	knee_angle_r_beta	ankle_angle_r	subtalar_angle_r	mtp_angle_r	hip_flexion_l	hip_adduction_l	hip_rotation_l	knee_angle_l	knee_angle_l_beta	ankle_angle_l	subtalar_angle_l	mtp_angle_l	lumbar_extension	lumbar_bending	lumbar_rotation	arm_flex_r	arm_add_r	arm_rot_r	elbow_flex_r	pro_sup_r	arm_flex_l	arm_add_l	arm_rot_l	elbow_flex_l	pro_sup_l
      0.00000000	     -6.84255641	     -1.70448907	      8.29132793	     -0.16918437	      0.86316673	     -0.18482040	     36.58039177	     -0.49142221	     -8.66306371	     11.52397278	      0.20113127	      1.06952701	     -2.28974219	     -7.09179208	    -13.83655316	     -3.04773921	      3.26376843	     15.51305758	      0.27075393	     18.22731325	      3.99879473	     -7.09179208	      1.35640555	      1.86518519	    -12.51090165	     -5.45472188	     -9.08568114	    -43.80070159	      6.83666790	     97.27648129	     20.84943206	    -12.70169311	      9.29894096	     43.87710991	     96.35893098
      0.01000000	     -6.64471827	     -2.20386357	      8.29660857	     -0.15158049	      0.86333130	     -0.18398425	     36.55758205	      0.08607378	     -8.62054875	     13.39670681	      0.23381664	      0.53432940	     -2.58239935	     -7.09686240	    -13.86019112	     -3.86910774	      2.65517109	     17.46199349	      0.30476928	     16.49745019	      3.92381824	     -7.09686240	      1.35623210	      2.63259407	    -12.54092997	     -5.60950409	     -9.31790350	    -43.88489862	      7.16677995	     97.12442642	     20.47202243	    -12.44028126	      9.34194125	     43.67400943	     96.26234210
      0.02000000	     -6.77945716	     -2.72626085	      8.22440182	     -0.13353266	      0.86336802	     -0.18290900	     36.82009474	      0.77559540	     -7.95102457	     15.21053430	      0.26547390	     -0.28715359	     -3.99456157	     -7.11041669	    -13.30716415	     -4.63576147	      2.13087570	     19.74715829	      0.34465293	     14.37852910	      3.44152336	     -7.11041669	      2.01557669	      3.28658073	    -12.39620573	     -5.62214729	     -9.70962455	    -44.46140215	      6.45007482	     96.93714352	     20.04896277	    -11.88419898	      9.03717547	     42.67881066	     96.31780903
      0.03000000	     -6.44911064	     -3.22904137	      8.19680187	     -0.11544897	      0.86450322	     -0.18193370	     36.42134562	      1.48813529	     -7.64266358	     16.81823900	      0.29353364	     -0.79815115	     -4.79687517	     -7.20810400	    -13.11393297	     -5.46359277	      1.54795247	     22.08737928	      0.38549749	     11.61544276	      3.00771879	     -7.20810400	      1.98240187	      4.01046217	    -12.41417454	     -5.51410996	     -9.86948229	    -44.78803438	      6.44825759	     92.17517936	     19.52985547	    -11.51765990	      9.04786558	     41.98009177	     92.34056937
      0.04000000	     -6.55648520	     -3.69526333	      8.07634615	     -0.09720025	      0.86533321	     -0.18096273	     36.45949449	      2.14542541	     -7.34371209	     18.45780897	      0.32214954	     -0.97858481	     -5.32223885	     -7.30646937	    -12.20670175	     -6.17242488	      0.99512408	     24.77697938	      0.43243987	      8.40794287	      2.43033595	     -7.30646937	      2.57073520	      4.54044444	    -11.97939098	     -5.72457817	    -10.04786312	    -47.96598762	      6.35360365	     96.31989881	     19.08882526	    -10.84110562	      8.14175528	     40.82823673	     99.47119161
      0.05000000	     -6.37991188	     -4.14213440	      8.00129494	     -0.07916571	      0.86692249	     -0.18021989	     36.01061087	      2.84709630	     -7.06381319	     19.79873746	      0.34555316	     -1.06569707	     -5.97191349	     -7.32244477	    -11.42461476	     -6.89309087	      0.54191236	     27.57639283	      0.48129885	      4.79315031	      1.73754855	     -7.32244477	      2.75556011	      5.12553665	    -11.90252709	     -5.64847800	    -10.27122038	    -48.12998084	      6.21109045	     95.38809869	     18.35357180	    -10.47433386	      7.91152531	     40.10125008	     98.34854745
      0.06000000	     -6.26641573	     -4.53917505	      7.91365404	     -0.06135758	      0.86869745	     -0.17961417	     35.50140197	      3.51619417	     -6.80666379	     20.95494762	      0.36573283	     -0.94644749	     -6.50128697	     -7.33678091	    -10.38475818	     -7.52947150	      0.19360012	     30.53080297	      0.53286304	      0.95553758	      0.93459252	     -7.33678091	      3.03714197	      5.61338218	    -11.76780630	     -5.58708436	    -10.46291559	    -48.27787495	      6.08745604	     94.68191430	     17.58781268	    -10.10889407	      7.69502555	     39.23218607	     97.62645374
      0.07000000	     -6.16220630	     -4.84118948	      7.84395838	     -0.04400165	      0.87064008	     -0.17919518	     34.87938058	      4.09448023	     -6.57682553	     21.93025572	      0.38275517	     -0.60735676	     -7.00001103	     -7.34822970	     -9.15595547	     -8.03639547	     -0.01779596	     33.57503560	      0.58599492	     -2.93188988	      0.08703340	     -7.34822970	      3.29356975	      5.99134878	    -11.60520417	     -5.52273026	    -10.59694559	    -48.39602286	      6.04712342	     94.33756835	     16.78888998	     -9.74035362	      7.45576773	     38.27547455	     97.38875730
